<svg width="126" height="24" viewBox="0 0 126 24" fill="none" xmlns="http://www.w3.org/2000/svg">
<path d="M0 1.13535V23.5269H4.31989V9.36662L9.26976 18.8594H12.4497L17.3995 9.36662V23.5269H21.7194V1.13535H17.6695L10.9197 14.0657L4.19989 1.13535H0ZM24.7348 15.1695C24.7348 20.2155 28.0647 24 32.8346 24C35.8045 24 38.8945 22.4547 40.0344 19.4586L36.2845 18.1971C35.5045 19.5217 34.3646 20.2786 32.8646 20.2786C30.5847 20.2786 29.3247 18.5125 28.9947 16.3049H40.3644V15.201C40.3644 10.1551 37.4545 6.4021 32.6246 6.4021C27.8847 6.4021 24.7348 10.4389 24.7348 15.1695ZM32.6246 9.80815C34.6346 9.80815 35.7745 11.385 36.0445 13.3403H29.0547C29.4147 11.385 30.6147 9.80815 32.6246 9.80815ZM41.6553 6.87516V10.4389H44.3552V18.1971C44.3552 21.7924 46.3052 24 49.6651 24C50.9851 24 52.335 23.6531 53.475 22.8962L52.725 19.5848C52.0051 19.9001 51.2851 20.1524 50.5051 20.1524C49.0351 20.1524 48.5551 19.0486 48.5551 17.661V10.4389H52.875V6.87516H48.5551V1.19842H44.3552V6.87516H41.6553ZM60.7222 24C62.5221 24 64.4421 23.2431 65.402 21.5716L65.522 23.5269H69.2719V13.435C69.2719 9.08278 66.362 6.4021 62.4021 6.4021C59.4922 6.4021 56.3423 8.04205 55.6523 11.2273L59.4022 12.0158C59.8522 10.6912 61.0522 10.0289 62.3421 10.0289C64.1721 10.0289 65.1921 11.3535 65.1921 13.2142V14.1919C63.9621 13.7188 62.9121 13.4665 61.5921 13.4665C58.4422 13.4665 55.0823 15.0749 55.0823 18.7963C55.0823 22.1078 57.8422 24 60.7222 24ZM59.2222 18.5756C59.2222 16.9041 60.9922 16.431 62.2821 16.431C62.7921 16.431 63.2721 16.4941 63.7821 16.5887C64.2921 16.7148 64.7421 16.8725 65.1921 17.0618V17.2194C65.1921 19.2694 63.5721 20.594 61.7421 20.594C60.5722 20.594 59.2222 19.9947 59.2222 18.5756ZM72.6187 0V23.5269H76.4886L76.6086 21.3509C77.7186 23.117 79.5186 24 81.4985 24C86.1484 24 89.0283 19.6163 89.0283 15.1064C89.0283 10.5966 86.2384 6.4021 81.7385 6.4021C79.7585 6.4021 78.0186 7.31669 76.8186 8.98817V0H72.6187ZM80.7485 10.3758C83.2985 10.3758 84.7384 12.7411 84.7384 15.201C84.7384 17.6925 83.2385 20.0263 80.7485 20.0263C78.2286 20.0263 76.7586 17.6294 76.7586 15.201C76.7586 12.7096 78.2586 10.3758 80.7485 10.3758ZM91.7784 6.87516V23.5269H95.9783V13.9711C95.9783 11.9212 97.2682 10.3758 99.2182 10.3758C101.288 10.3758 102.038 12.1735 102.038 14.0972V23.5269H106.238V13.5296C106.238 9.65046 104.348 6.4021 100.448 6.4021C98.5282 6.4021 96.7583 7.25361 95.7683 9.01971L95.6483 6.87516H91.7784ZM109.59 0V23.5269H113.46L113.58 21.3509C114.69 23.117 116.49 24 118.47 24C123.12 24 126 19.6163 126 15.1064C126 10.5966 123.21 6.4021 118.71 6.4021C116.73 6.4021 114.99 7.31669 113.79 8.98817V0H109.59ZM117.72 10.3758C120.27 10.3758 121.71 12.7411 121.71 15.201C121.71 17.6925 120.21 20.0263 117.72 20.0263C115.2 20.0263 113.73 17.6294 113.73 15.201C113.73 12.7096 115.23 10.3758 117.72 10.3758Z" fill="url(#paint0_linear_40_729)"/>
<defs>
<linearGradient id="paint0_linear_40_729" x1="23.2368" y1="2.56001" x2="99.3101" y2="12.83" gradientUnits="userSpaceOnUse">
<stop stop-color="#DC3E88"/>
<stop offset="0.418735" stop-color="#B840AE"/>
<stop offset="1" stop-color="#843FE8"/>
</linearGradient>
</defs>
</svg>
