<svg width="104" height="24" viewBox="0 0 104 24" fill="none" xmlns="http://www.w3.org/2000/svg">
<path d="M0 1.13535V23.5269H3.56562V9.36662L7.65123 18.8594H10.2759L14.3615 9.36662V23.5269H17.9272V1.13535H14.5844L9.0131 14.0657L3.46658 1.13535H0ZM20.416 15.1695C20.416 20.2155 23.1645 24 27.1016 24C29.5529 24 32.1034 22.4547 33.0443 19.4586L29.9491 18.1971C29.3053 19.5217 28.3644 20.2786 27.1263 20.2786C25.2445 20.2786 24.2045 18.5125 23.9321 16.3049H33.3167V15.201C33.3167 10.1551 30.9148 6.4021 26.9283 6.4021C23.016 6.4021 20.416 10.4389 20.416 15.1695ZM26.9283 9.80815C28.5873 9.80815 29.5282 11.385 29.751 13.3403H23.9817C24.2788 11.385 25.2693 9.80815 26.9283 9.80815ZM34.3822 6.87516V10.4389H36.6107V18.1971C36.6107 21.7924 38.2202 24 40.9934 24C42.0829 24 43.1972 23.6531 44.1381 22.8962L43.5191 19.5848C42.9248 19.9001 42.3305 20.1524 41.6867 20.1524C40.4734 20.1524 40.0773 19.0486 40.0773 17.661V10.4389H43.6429V6.87516H40.0773V1.19842H36.6107V6.87516H34.3822ZM50.1199 24C51.6056 24 53.1903 23.2431 53.9826 21.5716L54.0817 23.5269H57.1768V13.435C57.1768 9.08278 54.775 6.4021 51.5065 6.4021C49.1047 6.4021 46.5047 8.04205 45.9352 11.2273L49.0304 12.0158C49.4018 10.6912 50.3923 10.0289 51.457 10.0289C52.9674 10.0289 53.8093 11.3535 53.8093 13.2142V14.1919C52.7941 13.7188 51.9275 13.4665 50.838 13.4665C48.238 13.4665 45.4648 15.0749 45.4648 18.7963C45.4648 22.1078 47.7428 24 50.1199 24ZM48.8818 18.5756C48.8818 16.9041 50.3427 16.431 51.4075 16.431C51.8284 16.431 52.2246 16.4941 52.6455 16.5887C53.0665 16.7148 53.4379 16.8725 53.8093 17.0618V17.2194C53.8093 19.2694 52.4722 20.594 50.9618 20.594C49.9961 20.594 48.8818 19.9947 48.8818 18.5756ZM59.9393 0V23.5269H63.1335L63.2325 21.3509C64.1487 23.117 65.6344 24 67.2686 24C71.1066 24 73.4837 19.6163 73.4837 15.1064C73.4837 10.5966 71.1809 6.4021 67.4667 6.4021C65.8324 6.4021 64.3963 7.31669 63.4058 8.98817V0H59.9393ZM66.6496 10.3758C68.7543 10.3758 69.9428 12.7411 69.9428 15.201C69.9428 17.6925 68.7048 20.0263 66.6496 20.0263C64.5696 20.0263 63.3563 17.6294 63.3563 15.201C63.3563 12.7096 64.5944 10.3758 66.6496 10.3758ZM75.7536 6.87516V23.5269H79.2202V13.9711C79.2202 11.9212 80.2849 10.3758 81.8944 10.3758C83.6029 10.3758 84.2219 12.1735 84.2219 14.0972V23.5269H87.6885V13.5296C87.6885 9.65046 86.1285 6.4021 82.9096 6.4021C81.3249 6.4021 79.864 7.25361 79.0468 9.01971L78.9478 6.87516H75.7536ZM90.4556 0V23.5269H93.6498L93.7488 21.3509C94.665 23.117 96.1507 24 97.7849 24C101.623 24 104 19.6163 104 15.1064C104 10.5966 101.697 6.4021 97.983 6.4021C96.3488 6.4021 94.9126 7.31669 93.9222 8.98817V0H90.4556ZM97.1659 10.3758C99.2706 10.3758 100.459 12.7411 100.459 15.201C100.459 17.6925 99.2211 20.0263 97.1659 20.0263C95.0859 20.0263 93.8726 17.6294 93.8726 15.201C93.8726 12.7096 95.1107 10.3758 97.1659 10.3758Z" fill="url(#paint0_linear_40_729)"/>
<defs>
<linearGradient id="paint0_linear_40_729" x1="19.1796" y1="2.56001" x2="82.3305" y2="9.59692" gradientUnits="userSpaceOnUse">
<stop stop-color="#DC3E88"/>
<stop offset="0.418735" stop-color="#B840AE"/>
<stop offset="1" stop-color="#843FE8"/>
</linearGradient>
</defs>
</svg>
